name D:\school\WTK\thesis\model\3dpredictsim\Results\MidTarsalJoint\Fal_s1_bCst_PF_Natali2010_ls150_MT_k2000_MTP_T5_ig24_PFx2.mot
datacolumns 128
datarows 4
range 1.11147940 1.14482379
endheader
time	pelvis_tilt	pelvis_list	pelvis_rotation	pelvis_tx	pelvis_ty	pelvis_tz	hip_flexion_l	hip_adduction_l	hip_rotation_l	hip_flexion_r	hip_adduction_r	hip_rotation_r	knee_angle_l	knee_angle_r	ankle_angle_l	ankle_angle_r	subtalar_angle_l	subtalar_angle_r	mtj_angle_l	mtj_angle_r	mtp_angle_l	mtp_angle_r	lumbar_extension	lumbar_bending	lumbar_rotation	arm_flex_l	arm_add_l	arm_rot_l	arm_flex_r	arm_add_r	arm_rot_r	elbow_flex_l	elbow_flex_r	pro_sup_l	pro_sup_r	glut_med1_l/activation	glut_med2_l/activation	glut_med3_l/activation	glut_min1_l/activation	glut_min2_l/activation	glut_min3_l/activation	semimem_l/activation	semiten_l/activation	bifemlh_l/activation	bifemsh_l/activation	sar_l/activation	add_long_l/activation	add_brev_l/activation	add_mag1_l/activation	add_mag2_l/activation	add_mag3_l/activation	tfl_l/activation	pect_l/activation	grac_l/activation	glut_max1_l/activation	glut_max2_l/activation	glut_max3_l/activation	iliacus_l/activation	psoas_l/activation	quad_fem_l/activation	gem_l/activation	peri_l/activation	rect_fem_l/activation	vas_med_l/activation	vas_int_l/activation	vas_lat_l/activation	med_gas_l/activation	lat_gas_l/activation	soleus_l/activation	tib_post_l/activation	flex_dig_l/activation	flex_hal_l/activation	tib_ant_l/activation	per_brev_l/activation	per_long_l/activation	per_tert_l/activation	ext_dig_l/activation	ext_hal_l/activation	ercspn_l/activation	intobl_l/activation	extobl_l/activation	glut_med1_r/activation	glut_med2_r/activation	glut_med3_r/activation	glut_min1_r/activation	glut_min2_r/activation	glut_min3_r/activation	semimem_r/activation	semiten_r/activation	bifemlh_r/activation	bifemsh_r/activation	sar_r/activation	add_long_r/activation	add_brev_r/activation	add_mag1_r/activation	add_mag2_r/activation	add_mag3_r/activation	tfl_r/activation	pect_r/activation	grac_r/activation	glut_max1_r/activation	glut_max2_r/activation	glut_max3_r/activation	iliacus_r/activation	psoas_r/activation	quad_fem_r/activation	gem_r/activation	peri_r/activation	rect_fem_r/activation	vas_med_r/activation	vas_int_r/activation	vas_lat_r/activation	med_gas_r/activation	lat_gas_r/activation	soleus_r/activation	tib_post_r/activation	flex_dig_r/activation	flex_hal_r/activation	tib_ant_r/activation	per_brev_r/activation	per_long_r/activation	per_tert_r/activation	ext_dig_r/activation	ext_hal_r/activation	ercspn_r/activation	intobl_r/activation	extobl_r/activation	
          1.11147940	         -2.92215930	         -2.27038228	          5.34165442	          1.38934925	          0.91801374	         -0.00151224	        -17.27290565	         -1.48720259	          5.83898742	         28.35737605	          4.08688407	         -1.22012062	         -9.26950140	        -12.61781792	         -1.19667081	          5.20308232	          8.78938706	         -6.37108050	          0.51415853	         -0.04677630	         21.12354876	         -0.91853359	         -1.76599953	          0.72063646	         -2.02232776	          4.46708276	        -13.46308829	         16.20931741	         -6.67577859	        -13.48482286	          5.09171796	         35.86186468	         16.94103907	         86.51662706	         86.51662706	          0.31235171	          0.07980577	          0.05888598	          0.24147626	          0.15196670	          0.08325333	          0.05000108	          0.05000045	          0.05000045	          0.05000011	          0.08135312	          0.13922695	          0.08069543	          0.05926348	          0.05925740	          0.05926155	          0.23272514	          0.08324588	          0.05000576	          0.05000817	          0.05000640	          0.05002042	          0.29397602	          0.56254371	          0.05042254	          0.05000086	          0.05000011	          0.15409243	          0.14937815	          0.12459444	          0.10852355	          0.22562006	          0.30772964	          0.23800709	          0.23571014	          0.22777598	          0.30319077	          0.05000001	          0.05000049	          0.16124072	          0.05000008	          0.05000002	          0.05000010	          0.05344209	          0.05926229	          0.05000012	          0.26110879	          0.05000005	          0.26217440	          0.05000037	          0.05000013	          0.19184128	          0.06918008	          0.05000019	          0.17562897	          0.05000005	          0.05000022	          0.08336513	          0.24530466	          0.19284577	          0.15641630	          0.13725949	          0.05000039	          0.05927280	          0.10524345	          0.05000011	          0.05000020	          0.11218756	          0.05298550	          0.05000045	          0.40722493	          0.10882088	          0.14605565	          0.05926237	          0.14596176	          0.14654967	          0.12615476	          0.05926255	          0.05926281	          0.05926235	          0.05926234	          0.05926215	          0.05926206	          0.47222779	          0.29248083	          0.17047069	          0.32019277	          0.52672555	          0.16996015	          0.05000002	          0.11221559	          0.08325217	
          1.12259420	         -2.91417465	         -2.36913979	          5.59206411	          1.40631693	          0.91708401	         -0.00131456	        -17.01569249	         -1.78184116	          5.59385127	         27.57464076	          4.33002598	         -0.95057567	        -11.38466245	        -13.07241924	         -2.15107598	          4.71203020	          9.60632307	         -6.76492706	          0.31280188	         -0.04006727	         22.02638243	         -0.91042037	         -1.55508100	          0.94489420	         -2.06904497	          4.12341455	        -13.47051530	         16.46440945	         -7.53522084	        -13.49116960	          4.93373869	         36.94874241	         16.62257819	         86.51662706	         86.51662706	          0.30270605	          0.06733266	          0.05000006	          0.33880882	          0.12821532	          0.07024139	          0.05000186	          0.05000014	          0.05000011	          0.05000019	          0.06863858	          0.14470476	          0.06808347	          0.05000132	          0.05000086	          0.05000044	          0.22586296	          0.07023831	          0.05000052	          0.05000101	          0.05000062	          0.05000043	          0.24802950	          0.52410812	          0.05000008	          0.05000052	          0.05000035	          0.13009217	          0.12604195	          0.10512111	          0.13861819	          0.19035707	          0.25963345	          0.20080808	          0.19887020	          0.19217616	          0.25580408	          0.05000001	          0.08575314	          0.15602150	          0.05000014	          0.05000007	          0.05000013	          0.06762250	          0.05000000	          0.05000002	          0.31245820	          0.26510546	          0.33129048	          0.14874860	          0.19289698	          0.16185830	          0.05836773	          0.08414684	          0.14817929	          0.08325221	          0.05003079	          0.07033572	          0.20696511	          0.16270529	          0.13196958	          0.14987680	          0.05000033	          0.05000904	          0.08879506	          0.20545166	          0.15546094	          0.12262073	          0.05000006	          0.05000008	          0.34357830	          0.09181304	          0.12322823	          0.05000007	          0.12314892	          0.12364496	          0.10643762	          0.05000022	          0.05000046	          0.05000003	          0.05000004	          0.05000010	          0.05000013	          0.59633905	          0.34750426	          0.19113171	          0.54698504	          0.56592650	          0.27495568	          0.07498186	          0.10123827	          0.07024039	
          1.13370899	         -2.90460200	         -2.45620794	          5.80934160	          1.42324678	          0.91624789	         -0.00108431	        -16.64249165	         -2.05985591	          5.36024137	         26.80348156	          4.57002060	         -0.69471076	        -13.65329067	        -13.55573021	         -3.26270948	          4.25088232	         10.37001441	         -7.17233572	          0.10085272	         -0.03389664	         22.67487862	         -0.93273417	         -1.35599875	          1.16307720	         -2.10773984	          3.76681770	        -13.48432164	         16.69541449	         -8.34948861	        -13.49566415	          4.83366912	         37.96807728	         16.31381232	         86.51662706	         86.51662706	          0.27778543	          0.05680903	          0.05000008	          0.28585588	          0.10817613	          0.05926315	          0.05000131	          0.05000017	          0.05000017	          0.05000008	          0.05791111	          0.16945799	          0.12809893	          0.05000104	          0.05000637	          0.08269382	          0.19056289	          0.05926289	          0.05000057	          0.05000196	          0.05000133	          0.05000114	          0.20926408	          0.47354117	          0.05000015	          0.05000048	          0.05000011	          0.10975960	          0.11695335	          0.11695334	          0.11695337	          0.16060546	          0.21905439	          0.16942305	          0.16778809	          0.16214034	          0.21582360	          0.07863771	          0.10729405	          0.14908753	          0.05000036	          0.12949138	          0.05000130	          0.09322669	          0.05000001	          0.05000003	          0.40586101	          0.35583269	          0.41363462	          0.16659583	          0.16274911	          0.23370487	          0.06874101	          0.08703217	          0.12502060	          0.07024045	          0.05000020	          0.05934282	          0.17461826	          0.21042039	          0.20326867	          0.17292515	          0.05000023	          0.05003141	          0.09549653	          0.25128456	          0.19396344	          0.16536775	          0.05000010	          0.05000009	          0.28987923	          0.07746338	          0.18809037	          0.05000006	          0.20099577	          0.20329239	          0.17315674	          0.05000002	          0.05000006	          0.05000001	          0.05000002	          0.05000024	          0.05000019	          0.66284703	          0.29319156	          0.16125904	          0.50311680	          0.58974874	          0.33986422	          0.08941940	          0.08541540	          0.05926227	
          1.14482379	         -2.89365513	         -2.53721299	          5.99515060	          1.44000306	          0.91556435	         -0.00082789	        -16.13487485	         -2.31966907	          5.13613607	         26.07763233	          4.81833362	         -0.44026761	        -16.09345576	        -14.09618770	         -4.44437359	          3.77851852	         11.06056887	         -7.57729054	         -0.10702487	         -0.03942910	         22.79573215	         -0.93594374	         -1.17519819	          1.38041796	         -2.13856681	          3.42742918	        -13.49840957	         16.92172443	         -9.08967056	        -13.49918087	          4.79494578	         38.88519601	         15.99388444	         86.51662706	         86.51662706	          0.23436957	          0.05000009	          0.05000004	          0.24121161	          0.09126894	          0.05000076	          0.05000513	          0.05000034	          0.05000042	          0.05000008	          0.05000048	          0.18797922	          0.20361987	          0.12890332	          0.06762892	          0.11695319	          0.20187836	          0.05000216	          0.05000037	          0.05000140	          0.05000104	          0.05000096	          0.17655745	          0.42600291	          0.05000007	          0.05000030	          0.05000008	          0.09260488	          0.09867436	          0.09867435	          0.09867436	          0.13550384	          0.18481758	          0.14294329	          0.14156393	          0.13679900	          0.18209186	          0.15220298	          0.10721294	          0.12578625	          0.13309680	          0.19482907	          0.09357022	          0.11369090	          0.05000001	          0.05000002	          0.48134522	          0.44989496	          0.48579299	          0.15224872	          0.24652940	          0.29534828	          0.06502006	          0.09834563	          0.10548174	          0.05926240	          0.05000022	          0.05006800	          0.14732661	          0.20716281	          0.24148036	          0.19782177	          0.05000016	          0.05000130	          0.08620238	          0.31052688	          0.23973849	          0.20797203	          0.05000004	          0.05000004	          0.24457300	          0.06535654	          0.15872195	          0.05000003	          0.28244206	          0.28501025	          0.23978782	          0.05000002	          0.05000006	          0.05000000	          0.09926552	          0.05000525	          0.05000097	          0.72297562	          0.24736760	          0.13605529	          0.42448295	          0.57656883	          0.35085805	          0.09834015	          0.07206554	          0.05000003	
